<?xml version="1.0" encoding="UTF-8"?>
<svg version="1.1" xmlns="http://www.w3.org/2000/svg" width="1280" height="1280">
<path d="M0 0 C1.43108843 0.1738667 2.86224273 0.34719199 4.29345703 0.52001953 C69.84392801 8.53769185 133.50223874 27.36426738 193 56 C194.01545898 56.48581543 195.03091797 56.97163086 196.07714844 57.47216797 C211.51567998 64.89387129 226.32013665 73.18213309 241 82 C242.61318714 82.95849175 244.22646264 83.9168348 245.83984375 84.875 C268.8598785 98.6439001 290.61543299 114.46564707 311.26318359 131.56738281 C313.76234405 133.62882132 316.29045371 135.65416707 318.8125 137.6875 C323.50427121 141.52686232 327.99007411 145.56202368 332.44921875 149.66796875 C334.60075151 151.63499028 336.78291973 153.54553129 339 155.4375 C343.35799525 159.21143403 347.36020419 163.32947085 351.38671875 167.44921875 C353.81616004 169.82055682 356.35197383 171.88245589 359 174 C360.05544917 175.13544654 361.07783637 176.30264903 362.0625 177.5 C365.20699443 181.18807224 368.5531123 184.59938282 372 188 C376.54999479 192.50614445 380.85931634 197.11193154 385 202 C385.86882812 202.99128906 386.73765625 203.98257813 387.6328125 205.00390625 C394.97640409 213.40584617 401.80221791 222.13105146 408.51416016 231.04248047 C409.81968177 232.76243976 411.14197477 234.46582543 412.48046875 236.16015625 C431.63724993 260.51525996 448.10284444 286.91317774 462.56445312 314.2890625 C464.023481 317.04434235 465.50292697 319.78797042 466.984375 322.53125 C505.18161644 393.80058041 527.69114516 475.34386638 533 556 C533.08612549 557.22460938 533.17225098 558.44921875 533.26098633 559.7109375 C534.1404194 573.0517233 534.20129934 586.38433286 534.1875 599.75 C534.18656342 600.92484955 534.18562683 602.0996991 534.18466187 603.31015015 C534.1536542 621.28374833 533.88110328 639.10897281 532 657 C531.92458984 657.72608459 531.84917969 658.45216919 531.77148438 659.20025635 C524.69555899 726.83018218 507.47647454 792.16817997 479 854 C478.52449707 855.03608398 478.04899414 856.07216797 477.55908203 857.13964844 C470.4459815 872.54463262 462.55492564 887.35254571 454 902 C452.90343965 903.89831842 451.80708531 905.79675584 450.7109375 907.6953125 C435.33476027 934.17319958 417.70373347 959.54478383 398 983 C397.5683252 983.5165918 397.13665039 984.03318359 396.69189453 984.56542969 C391.33063993 990.97914215 385.89959685 997.31087511 380.265625 1003.48828125 C379.00276471 1004.8883143 377.74627087 1006.2944252 376.51542664 1007.72268677 C372.31639919 1012.59369127 367.93228661 1017.21447831 363.37890625 1021.75390625 C362.67531479 1022.45845444 361.97172333 1023.16300262 361.24681091 1023.88890076 C359.76985352 1025.36653367 358.29165258 1026.84292457 356.81225586 1028.31811523 C354.56834915 1030.55666481 352.32983296 1032.80050473 350.09179688 1035.04492188 C348.64615382 1036.48990404 347.20020055 1037.93457592 345.75390625 1039.37890625 C344.76602867 1040.36982018 344.76602867 1040.36982018 343.75819397 1041.38075256 C339.33248855 1045.78457434 334.73795134 1049.93552744 330 1054 C328.89400832 1054.96163848 327.78844888 1055.92377466 326.68359375 1056.88671875 C295.81645747 1083.58363808 262.55611034 1106.97204683 227 1127 C226.17226074 1127.46873535 225.34452148 1127.9374707 224.49169922 1128.42041016 C198.53791267 1143.05935638 171.7507627 1155.23849698 144 1166 C142.9888916 1166.39413086 141.9777832 1166.78826172 140.93603516 1167.19433594 C97.53985778 1183.96983918 51.40242426 1194.43472722 5.3125 1200.3125 C4.15943359 1200.45977539 3.00636719 1200.60705078 1.81835938 1200.75878906 C-2.11676981 1201.22527995 -6.05475074 1201.63130172 -10 1202 C-10.91977631 1202.08613556 -11.83955261 1202.17227112 -12.78720093 1202.26101685 C-30.80149617 1203.8913472 -48.75756412 1204.36666789 -66.83492279 1204.31805801 C-68.97533748 1204.31239998 -71.11574418 1204.30959058 -73.25616455 1204.30697632 C-94.95792789 1204.2684836 -116.44905811 1203.72212877 -138 1201 C-138.70872253 1200.91278687 -139.41744507 1200.82557373 -140.14764404 1200.73571777 C-203.60812522 1192.92006775 -265.58021688 1176.25975188 -323.59033203 1149.12695312 C-326.09613973 1147.95503739 -328.60859894 1146.79812497 -331.12109375 1145.640625 C-376.70031233 1124.46639559 -419.71650037 1096.2885172 -457.8984375 1063.62890625 C-460.824486 1061.1327295 -463.81356752 1058.72073366 -466.8125 1056.3125 C-470.74117422 1053.11831705 -474.37089272 1049.78945732 -477.85546875 1046.1171875 C-479.67945423 1044.31645866 -481.53808235 1042.66766849 -483.484375 1041.00390625 C-488.71525014 1036.46109749 -493.58674999 1031.56324723 -498.47290039 1026.6574707 C-500.05959946 1025.06541034 -501.65157742 1023.4787701 -503.24414062 1021.89257812 C-508.70757322 1016.43271494 -513.97968759 1010.87331523 -519 1005 C-520.61967817 1003.22429779 -522.24411718 1001.45291693 -523.875 999.6875 C-528.79577302 994.2850248 -533.4270049 988.69762419 -538 983 C-538.92389449 981.86801214 -539.8484029 980.73652513 -540.7734375 979.60546875 C-548.57920607 970.01522809 -555.87355065 960.10294925 -563 950 C-563.46760742 949.33919434 -563.93521484 948.67838867 -564.41699219 947.99755859 C-619.29140521 870.18967058 -655.53068294 779.24342003 -673 639 C-673.07202637 638.0409375 -673.14405273 637.081875 -673.21826172 636.09375 C-678.92968989 555.6186666 -666.06365966 473.34400522 -613 335 C-612.57364258 334.10732422 -612.14728516 333.21464844 -611.70800781 332.29492188 C-582.22526809 270.99139805 -540.50315615 216.51825449 -492.625 168.5 C-492.10876068 167.98108185 -491.59252136 167.4621637 -491.06063843 166.92752075 C-485.2201661 161.06405032 -479.2986349 155.37517849 -473 150 C-471.39231627 148.54554483 -469.78760285 147.08779105 -468.1875 145.625 C-462.93819023 140.89423907 -457.50376055 136.43002948 -452 132 C-450.86686303 131.07461592 -449.73406551 130.14881607 -448.6015625 129.22265625 C-439.01176763 121.41951373 -429.09384857 114.13559468 -419 107 C-418.40977051 106.58121582 -417.81954102 106.16243164 -417.21142578 105.73095703 C-370.20059883 72.45080795 -318.47372742 46.56601486 -264 28 C-262.91460937 27.6277832 -261.82921875 27.25556641 -260.7109375 26.87207031 C-221.29748765 13.46372441 -180.33173396 4.81015869 -139 0 C-137.82695313 -0.14953125 -136.65390625 -0.2990625 -135.4453125 -0.453125 C-91.43479814 -5.94260851 -43.97624468 -5.57797931 0 0 Z M-219 140 C-220.05960937 140.33725098 -221.11921875 140.67450195 -222.2109375 141.02197266 C-279.7361983 159.54362983 -334.02089552 190.02645021 -379.8828125 229.35546875 C-382.70129756 231.76549028 -385.59389658 234.07117599 -388.5 236.375 C-393.45073573 240.3934074 -397.90386961 244.78657373 -402.36181641 249.33227539 C-405.26995544 252.29323412 -408.20197184 255.13046266 -411.375 257.8125 C-414.67217943 260.61303316 -417.43426683 263.67887395 -420.2265625 266.9765625 C-422.02461917 269.02808972 -423.9157426 270.91519541 -425.875 272.8125 C-429.75185102 276.62947687 -433.15063883 280.73782391 -436.53125 284.99609375 C-438.57461338 287.48240141 -440.67152749 289.86747319 -442.828125 292.25390625 C-446.90431854 296.81637753 -450.61100859 301.58516944 -454.25 306.5 C-454.89694824 307.37019775 -455.54389648 308.24039551 -456.21044922 309.13696289 C-458.14793799 311.75245358 -460.07609136 314.37450804 -462 317 C-462.54237305 317.73847168 -463.08474609 318.47694336 -463.64355469 319.23779297 C-480.10480336 341.76343682 -493.93273002 366.02205736 -506.08203125 391.11523438 C-506.98789464 392.97514537 -507.91465339 394.82348238 -508.84375 396.671875 C-530.86951772 441.17919455 -542.99238095 490.08148315 -550 539 C-550.18079102 540.24185059 -550.36158203 541.48370117 -550.54785156 542.76318359 C-555.88874841 581.48203122 -555.64821946 623.33142061 -550 662 C-549.8981842 662.70372742 -549.79636841 663.40745483 -549.69146729 664.13250732 C-538.75617891 739.26574497 -512.63311158 811.49260717 -469 874 C-468.59475098 874.58249512 -468.18950195 875.16499023 -467.77197266 875.76513672 C-458.4913664 889.05467542 -448.58644819 901.72822852 -438 914 C-437.36191406 914.73992188 -436.72382813 915.47984375 -436.06640625 916.2421875 C-434.38878335 918.17164756 -432.69524303 920.0860086 -431 922 C-430.40251953 922.6815918 -429.80503906 923.36318359 -429.18945312 924.06542969 C-423.01913263 931.02704489 -416.53917983 937.64700004 -409.96240234 944.22290039 C-408.12957731 946.05791722 -406.3049299 947.9008125 -404.48046875 949.74414062 C-398.34850817 955.90473394 -392.17176538 961.75247641 -385.33691406 967.13671875 C-383.01403513 968.98880943 -380.81520998 970.93124119 -378.625 972.9375 C-309.81746186 1034.58517085 -215.8593921 1070.66628239 -125 1081.3125 C-124.30964661 1081.39381165 -123.61929321 1081.47512329 -122.90802002 1081.55889893 C-105.67586278 1083.55831831 -88.58201641 1084.23939421 -71.25 1084.25 C-70.24821716 1084.25067474 -69.24643433 1084.25134949 -68.21429443 1084.25204468 C7.52859266 1084.17179427 81.29438716 1065.94263144 149 1032 C149.91233398 1031.54512207 150.82466797 1031.09024414 151.76464844 1030.62158203 C190.66867888 1011.11254368 225.95037983 985.34256326 258 956 C258.49999512 955.54512207 258.99999023 955.09024414 259.51513672 954.62158203 C269.15351627 945.85062734 278.74214978 937.00297627 287.20703125 927.0703125 C289.33146824 924.6172589 291.54188637 922.25296853 293.75 919.875 C298.97786243 914.13537393 303.74578503 908.10591568 308.47998047 901.95703125 C310.07419144 899.90447823 311.69269801 897.87303364 313.31640625 895.84375 C327.08323484 878.55467812 338.91135392 860.09755367 350 841 C350.41668945 840.28908203 350.83337891 839.57816406 351.26269531 838.84570312 C364.78698853 815.67052649 375.84065897 791.19686802 385 766 C385.42764648 764.82421387 385.85529297 763.64842773 386.29589844 762.43701172 C401.06131564 721.2648586 409.60333526 678.56797667 413 635 C413.10586426 633.69699951 413.10586426 633.69699951 413.21386719 632.36767578 C420.48751997 539.21488972 397.70770749 441.914728 306 296 C305.10618689 294.93278045 304.21298885 293.86504557 303.3203125 292.796875 C297.68355751 286.07046518 291.91743337 279.48195853 286 273 C285.17113281 272.07832031 284.34226562 271.15664063 283.48828125 270.20703125 C274.46208515 260.23209629 265.18032811 250.31948644 254.8984375 241.62109375 C252.67099967 239.7190635 250.52977029 237.7339228 248.375 235.75 C242.76849986 230.69817643 236.87601251 226.07178231 230.89941406 221.47119141 C229.01227156 220.00950494 227.14196646 218.52834704 225.2734375 217.04296875 C205.14957341 201.17899297 183.3866954 187.422765 161 175 C160.11683105 174.50951172 159.23366211 174.01902344 158.32373047 173.51367188 C75.03019052 127.68117937 -24.71544666 108.68486693 -219 140 Z " fill="#F37A20" transform="translate(711,39)"/>
<path d="M0 0 C61.38 0 122.76 0 186 0 C203.18684441 43.54000583 203.18684441 43.54000583 210.27609253 61.59820557 C211.63368373 65.05632236 212.9917271 68.51426134 214.34985352 71.97216797 C217.71624073 80.54352012 221.08193201 89.1151455 224.44763184 97.68676758 C227.77721931 106.16632316 231.10710864 114.64576011 234.4375 123.125 C234.90189484 124.30737244 235.36628967 125.48974487 235.84475708 126.70794678 C241.3840949 140.8102155 246.9317926 154.90910548 252.5 169 C258.53977222 184.28423554 264.55447161 199.5782598 270.5625 214.875 C271.02633087 216.05592224 271.49016174 217.23684448 271.9680481 218.45355225 C275.79512365 228.19774232 279.6213878 237.94225097 283.44763184 247.68676758 C286.77721931 256.16632316 290.10710864 264.64576011 293.4375 273.125 C293.90189484 274.30737244 294.36628967 275.48974487 294.84475708 276.70794678 C300.3840949 290.8102155 305.9317926 304.90910548 311.5 319 C320.41348641 341.55645092 329.27240872 364.13434212 338.13720703 386.70996094 C342.30172641 397.31528069 346.46817242 407.91984352 350.63452148 418.52444458 C352.91134976 424.31966052 355.18810922 430.11490349 357.46484375 435.91015625 C357.91677094 437.0604985 358.36869812 438.21084076 358.83432007 439.39604187 C361.6750683 446.62705742 364.51547147 453.85820842 367.35565186 461.08944702 C377.55781343 487.06461163 387.76202745 513.03892528 398 539 C406.35997557 536.82807548 414.55173903 534.25684287 422.75 531.54296875 C424.05630573 531.11294952 425.36270434 530.68321232 426.66918945 530.2537384 C430.08861468 529.12903 433.5070071 528.00121779 436.92510986 526.87249756 C468.95510763 516.29821708 468.95510763 516.29821708 481.25 512.36328125 C482.01207764 512.11619919 482.77415527 511.86911713 483.55932617 511.61454773 C486.49245399 510.6841398 488.90180823 510 492 510 C492.38344826 511.29068893 492.38344826 511.29068893 492.77464294 512.60745239 C495.229039 520.86869975 497.68382925 529.12982987 500.13902187 537.39084053 C501.40009569 541.63403488 502.66103661 545.87726862 503.92163086 550.12060547 C505.14124805 554.22597935 506.36124794 558.33123933 507.58150101 562.43642426 C508.06611606 564.06696807 508.55061065 565.69754769 509.03498459 567.32816315 C511.58389406 575.90834326 514.14157888 584.48564724 516.73095703 593.05371094 C516.94457036 593.76150381 517.15818369 594.46929668 517.37827015 595.19853783 C518.37826511 598.51189738 519.38070337 601.82446971 520.38829041 605.13552856 C520.73461014 606.28173676 521.08092987 607.42794495 521.43774414 608.60888672 C521.74120255 609.60781952 522.04466095 610.60675232 522.35731506 611.63595581 C523 614 523 614 523 616 C522.19760895 616.23040985 521.3952179 616.4608197 520.56851196 616.69821167 C479.65021019 628.44880532 438.73791234 640.2199796 397.83867645 652.03678131 C394.97419273 652.8643986 392.10968653 653.69193804 389.24517822 654.51947021 C384.6783721 655.83883178 380.11166889 657.15854907 375.54502106 658.4784584 C372.9411887 659.23096138 370.33726406 659.98314445 367.7333374 660.73532104 C359.6757764 663.06370438 351.62069894 665.40013386 343.57080078 667.75488281 C342.1028408 668.1836444 340.63486933 668.61236663 339.16688538 669.04104614 C336.46421329 669.83030085 333.76257437 670.62296333 331.06150818 671.41769409 C329.88693558 671.76083649 328.71236298 672.10397888 327.50219727 672.45751953 C326.48086197 672.75739777 325.45952667 673.057276 324.40724182 673.36624146 C322 674 322 674 320 674 C298.45687037 620.33781284 298.45687037 620.33781284 290.6875 600.25 C290.41870026 599.55505432 290.14990051 598.86010864 289.87295532 598.144104 C289.60332977 597.44702332 289.33370422 596.74994263 289.0559082 596.03173828 C284.61047481 584.54196963 280.09739397 573.07974055 275.5625 561.625 C275.20354645 560.71823517 274.8445929 559.81147034 274.47476196 558.87722778 C273.03493296 555.24037258 271.59488195 551.60360543 270.1544342 547.96699524 C266.55403422 538.87669193 262.96377288 529.78239851 259.375 520.6875 C258.75790489 519.12385633 258.14079879 517.560217 257.52368164 515.99658203 C256.29666072 512.88755288 255.06969686 509.77850122 253.84277344 506.66943359 C251.35597102 500.36791654 248.86854216 494.06664679 246.38110352 487.76538086 C245.12368373 484.58003446 243.86636565 481.39464794 242.60913086 478.20922852 C239.86291761 471.2513885 237.11640178 464.29366973 234.36717224 457.33702087 C232.89027086 453.59981645 231.41381461 449.86243625 229.9375 446.125 C229.63973663 445.37125092 229.34197327 444.61750183 229.03518677 443.84091187 C224.8960718 433.36119525 220.77159334 422.87579328 216.65625 412.38671875 C216.18978561 411.19801682 215.72332123 410.00931488 215.24272156 408.78459167 C211.3653044 398.90357087 211.3653044 398.90357087 209.50991821 394.17160034 C204.87260827 382.3459556 200.23036953 370.52314969 195.48046875 358.7421875 C195.14367599 357.90598373 194.80688324 357.06977997 194.45988464 356.20823669 C192.93393917 352.42252781 191.40186951 348.63949188 189.85913086 344.8605957 C189.33564805 343.56727132 188.81228338 342.27389912 188.2890625 340.98046875 C187.84256348 339.88629639 187.39606445 338.79212402 186.93603516 337.66479492 C186 335 186 335 186 332 C185.34 332 184.68 332 184 332 C183.73606445 332.71808838 183.47212891 333.43617676 183.20019531 334.17602539 C181.96683304 337.0780395 180.51010937 339.5385282 178.796875 342.18359375 C178.15331055 343.18245605 177.50974609 344.18131836 176.84667969 345.21044922 C175.80882324 346.80783936 175.80882324 346.80783936 174.75 348.4375 C173.66070866 350.12641702 172.5714236 351.81533818 171.48272705 353.50463867 C170.37242852 355.22664446 169.26047741 356.94757542 168.1484375 358.66845703 C164.99540274 363.5578107 161.87057628 368.4648885 158.75 373.375 C158.17604492 374.27726318 157.60208984 375.17952637 157.01074219 376.10913086 C152.83928873 382.66995958 148.68563561 389.24191307 144.53808594 395.81787109 C140.11504408 402.8271191 135.66376257 409.81824173 131.2109375 416.80859375 C127.46109288 422.6976669 123.72441582 428.59481615 120 434.5 C112.77141965 445.95950384 105.48843444 457.38429513 98.20898438 468.81152344 C91.63334136 479.13492365 85.06803747 489.46445981 78.53857422 499.81713867 C74.11531987 506.82659946 69.66392023 513.81799422 65.2109375 520.80859375 C61.46109288 526.6976669 57.72441582 532.59481615 54 538.5 C46.77141965 549.95950384 39.48843444 561.38429513 32.20898438 572.81152344 C26.12395214 582.36469153 20.0434107 591.9204332 14 601.5 C12.52847218 603.83076532 11.05661734 606.16132347 9.58447266 608.49169922 C8.46660886 610.26133445 7.34913241 612.03121441 6.23193359 613.80126953 C4.38631926 616.72328873 2.53724494 619.64309426 0.6875 622.5625 C0.12482422 623.45453125 -0.43785156 624.3465625 -1.01757812 625.265625 C-1.56478516 626.12800781 -2.11199219 626.99039063 -2.67578125 627.87890625 C-3.3860144 629.00147827 -3.3860144 629.00147827 -4.1105957 630.14672852 C-5.04585083 631.5590979 -5.04585083 631.5590979 -6 633 C-6.4238586 633.80065541 -6.84771721 634.60131083 -7.28442001 635.42622852 C-11.38387828 642.44115758 -11.38387828 642.44115758 -15.63530254 643.91126728 C-18.88539944 644.23196287 -22.00473902 644.23787875 -25.26928711 644.13525391 C-26.48950562 644.13671417 -27.70972412 644.13817444 -28.96691895 644.13967896 C-32.2973736 644.13392251 -35.62155064 644.08397516 -38.95089412 644.01393938 C-42.43538001 643.95121731 -45.91995919 643.94553619 -49.40492249 643.9336853 C-55.9964013 643.90266314 -62.58621192 643.82068914 -69.17695767 643.72019041 C-76.68339124 643.6082257 -84.18990659 643.55338731 -91.69696796 643.50323606 C-107.13227651 643.39884551 -122.56592275 643.22307663 -138 643 C-136.76003015 639.15502974 -135.51918372 635.90019993 -133.3046875 632.515625 C-132.76191162 631.67636475 -132.21913574 630.83710449 -131.65991211 629.97241211 C-131.07089111 629.07401611 -130.48187012 628.17562012 -129.875 627.25 C-128.60109579 625.27848554 -127.32903543 623.30577874 -126.05859375 621.33203125 C-125.39327637 620.29900879 -124.72795898 619.26598633 -124.04248047 618.20166016 C-120.60936859 612.82013624 -117.27307236 607.37983454 -113.9375 601.9375 C-112.92925171 600.29406616 -112.92925171 600.29406616 -111.90063477 598.61743164 C-110.56794524 596.4449784 -109.2355023 594.27237388 -107.90332031 592.09960938 C-105.05131676 587.4550433 -102.18334035 582.82043935 -99.3125 578.1875 C-98.52540649 576.91700806 -98.52540649 576.91700806 -97.72241211 575.62084961 C-96.67393115 573.9286471 -95.62534784 572.236508 -94.57666016 570.54443359 C-91.88291445 566.19723357 -89.19160083 561.84852823 -86.5 557.5 C-85.41667787 555.74999307 -84.33334454 553.99999306 -83.25 552.25 C-82.71375 551.38375 -82.1775 550.5175 -81.625 549.625 C-59.6875 514.1875 -59.6875 514.1875 -37.75 478.75 C-37.21391113 477.8839917 -36.67782227 477.0179834 -36.12548828 476.12573242 C-35.04059456 474.3732494 -33.95563347 472.62080809 -32.87060547 470.8684082 C-30.18559597 466.53173543 -27.50170709 462.19437771 -24.8203125 457.85546875 C-19.13477983 448.65841169 -13.42606961 439.47656805 -7.6875 430.3125 C-1.01936995 419.66110324 5.57393843 408.96478966 12.15234375 398.2578125 C17.22211636 390.00727844 22.32202498 381.77548694 27.42333984 373.54443359 C30.11708555 369.19723357 32.80839917 364.84852823 35.5 360.5 C36.58332213 358.74999307 37.66665546 356.99999306 38.75 355.25 C39.28625 354.38375 39.8225 353.5175 40.375 352.625 C59.33333333 322 78.29166667 291.375 97.25 260.75 C98.0541333 259.45098755 98.0541333 259.45098755 98.87451172 258.12573242 C99.95940544 256.3732494 101.04436653 254.62080809 102.12939453 252.8684082 C104.81440403 248.53173543 107.49829291 244.19437771 110.1796875 239.85546875 C111.24474036 238.13278078 112.30984461 236.41012458 113.375 234.6875 C114.16076416 233.41604126 114.16076416 233.41604126 114.96240234 232.11889648 C117.97327806 227.25317938 121.00170024 222.39902181 124.046875 217.5546875 C124.72572754 216.47356689 125.40458008 215.39244629 126.10400391 214.27856445 C127.42159718 212.18184348 128.74147546 210.08655616 130.06396484 207.99291992 C130.96429443 206.5597644 130.96429443 206.5597644 131.8828125 205.09765625 C132.67776123 203.83707397 132.67776123 203.83707397 133.48876953 202.55102539 C133.98747559 201.70918701 134.48618164 200.86734863 135 200 C135.55817917 199.08351181 136.11635834 198.16702362 136.69145203 197.22276306 C138.30656743 193.24496907 137.88020238 191.87230743 136.44799805 187.88476562 C136.03313644 186.69492065 135.61827484 185.50507568 135.19084167 184.2791748 C134.71493763 182.98802644 134.23854973 181.69705633 133.76171875 180.40625 C133.28139217 179.05574867 132.80306026 177.70453642 132.32661438 176.35266113 C131.06241479 172.78300188 129.77110382 169.22374386 128.47393799 165.66595459 C127.1894246 162.12823424 125.93081125 158.58134906 124.66992188 155.03515625 C120.99265578 144.71550176 117.25668649 134.41757178 113.48291016 124.1328125 C113.10560257 123.10256958 112.72829498 122.07232666 112.33955383 121.01086426 C111.64618434 119.12058824 110.94975048 117.23143231 110.24967957 115.34362793 C109.94919205 114.52575806 109.64870453 113.70788818 109.33911133 112.86523438 C109.07834305 112.16088257 108.81757477 111.45653076 108.54890442 110.73083496 C108 109 108 109 108 107 C72.36 107 36.72 107 0 107 C0 71.69 0 36.38 0 0 Z " fill="#F37A20" transform="translate(465,284)"/>
</svg>
